#!OML:ASF F:\VICON\USERDATA\INSTALL\rory3\rory3.ASF
:FULLY-SPECIFIED
:DEGREES
1
root 1.34751 17.4898 -26.8209 -2.21059 -2.21267 3.81546
lowerback 7.78983 0.126208 -3.49817
upperback 1.63662 -0.0902494 0.873851
thorax -2.66618 -0.018907 2.88081
lowerneck -11.8958 -2.18475 -9.17077
upperneck 19.6222 -2.00044 4.11169
head 8.18553 -1.22468 2.68971
rclavicle 1.82385e-014 1.11319e-014
rhumerus -29.5966 -12.0418 -77.6233
rradius 32.1209
rwrist 8.61378
rhand -13.3289 17.0212
rfingers 7.12502
rthumb 12.7762 -12.5679
lclavicle 1.82385e-014 1.11319e-014
lhumerus -33.0725 10.8472 82.5066
lradius 24.0088
lwrist -16.5827
lhand -9.92596 28.1937
lfingers 7.12502
lthumb 16.0549 57.5485
rfemur -21.7667 -3.87161 17.612
rtibia 70.6037
rfoot -3.96953 -3.82226
rtoes 3.88277
lfemur -10.1124 -2.14514 -28.3222
ltibia 27.3848
lfoot -11.0384 3.51121
ltoes 0.701285
2
root 1.34828 17.4737 -26.6548 -2.0186 -1.77492 3.97669
lowerback 7.64107 -0.0976248 -3.78703
upperback 1.51743 -0.405105 0.939052
thorax -2.68009 -0.171168 3.14196
lowerneck -11.5097 -2.03905 -9.26873
upperneck 19.6466 -1.81417 4.09313
head 8.11133 -1.14967 2.72099
rclavicle 1.73937e-014 4.77083e-015
rhumerus -30.1538 -11.6393 -77.6111
rradius 32.4194
rwrist 7.62739
rhand -12.2027 13.8549
rfingers 7.12502
rthumb 13.8617 -15.6632
lclavicle 1.73937e-014 4.77083e-015
lhumerus -32.9117 10.35 82.8127
lradius 24.7019
lwrist -16.1229
lhand -10.1935 28.6952
lfingers 7.12502
lthumb 15.7973 58.0706
rfemur -23.1787 -4.25279 17.5935
rtibia 69.9725
rfoot -5.49051 -4.46792
rtoes 4.81295
lfemur -9.86245 -2.23616 -28.57
ltibia 27.6235
lfoot -11.5568 3.60353
ltoes -0.681869
3
root 1.3567 17.4681 -26.461 -2.10783 -1.28265 3.93057
lowerback 7.4706 -0.377642 -3.7437
upperback 1.55061 -0.763799 1.05209
thorax -2.52019 -0.35387 3.26654
lowerneck -11.0978 -1.94856 -9.47768
upperneck 19.5626 -1.68442 4.07198
head 8.00214 -1.10787 2.76203
rclavicle 9.0447e-015 -2.3059e-014
rhumerus -30.5425 -11.413 -77.5245
rradius 32.3482
rwrist 7.15323
rhand -11.0238 9.7106
rfingers 7.12502
rthumb 14.9975 -19.7263
lclavicle 9.0447e-015 -2.3059e-014
lhumerus -32.6993 10.1156 83.0174
lradius 25.2197
lwrist -16.2261
lhand -10.3835 28.7295
lfingers 7.12502
lthumb 15.6143 58.1193
rfemur -24.0264 -4.70326 17.7568
rtibia 68.9774
rfoot -6.70973 -5.04568
rtoes 5.24183
lfemur -9.15119 -2.65419 -28.6489
ltibia 28.0636
lfoot -12.4263 3.86772
ltoes 1.46506
4
root 1.3686 17.4464 -26.2624 -2.30323 -1.59698 3.99412
lowerback 7.47525 -0.378439 -3.71634
upperback 1.60857 -0.761897 1.06697
thorax -2.46311 -0.355343 3.26587
lowerneck -11.065 -1.87525 -9.62909
upperneck 19.7166 -1.56803 4.11578
head 8.04103 -1.06324 2.81591
rclavicle 1.49089e-015 -9.54166e-015
rhumerus -30.9348 -11.3598 -77.3978
rradius 31.9534
rwrist 7.02796
rhand -10.7123 9.02224
rfingers 7.12502
rthumb 15.2976 -20.392
lclavicle 1.49089e-015 -9.54166e-015
lhumerus -32.2011 9.96227 83.086
lradius 25.536
lwrist -16.6272
lhand -9.38289 28.9422
lfingers 7.12502
lthumb 16.5778 58.2541
rfemur -24.9504 -4.4906 17.793
rtibia 67.9694
rfoot -7.34128 -5.57739
rtoes 5.55617
lfemur -8.26718 -2.74743 -28.8865
ltibia 28.4237
lfoot -13.3204 4.49135
ltoes 1.62818
5
root 1.3737 17.4186 -26.0823 -2.22864 -1.95264 4.13455
lowerback 7.47728 -0.326665 -3.85232
upperback 1.56158 -0.704605 1.05936
thorax -2.51599 -0.324036 3.32994
lowerneck -11.2036 -1.82694 -9.64027
upperneck 20.0083 -1.47786 4.06874
head 8.15717 -1.03086 2.81483
rclavicle -1.2921e-015 7.15625e-015
rhumerus -31.4946 -11.2114 -77.3065
rradius 31.8444
rwrist 6.83925
rhand -10.8229 10.9643
rfingers 7.12502
rthumb 15.1911 -18.458
lclavicle -1.2921e-015 7.15625e-015
lhumerus -31.7111 9.64885 83.2181
lradius 25.9769
lwrist -16.47
lhand -9.15551 28.8146
lfingers 7.12502
lthumb 16.7967 58.1081
rfemur -26.2289 -4.16873 17.8097
rtibia 66.8105
rfoot -7.70582 -6.16026
rtoes 6.11981
lfemur -7.84132 -2.66929 -29.1425
ltibia 28.7767
lfoot -14.0773 4.93983
ltoes 1.27668
6
root 1.37501 17.4022 -25.9132 -2.03471 -2.00661 4.31476
lowerback 7.39919 -0.334825 -4.02597
upperback 1.53605 -0.728016 0.995774
thorax -2.49543 -0.33471 3.3632
lowerneck -11.2195 -1.85884 -9.54047
upperneck 19.9719 -1.53438 4.04093
head 8.1507 -1.05207 2.78243
rclavicle 1.68967e-015 -3.18055e-015
rhumerus -32.113 -10.6554 -77.4703
rradius 32.177
rwrist 6.13415
rhand -11.3501 11.925
rfingers 7.12502
rthumb 14.6832 -17.535
lclavicle 1.68967e-015 -3.18055e-015
lhumerus -31.1879 8.74072 83.4655
lradius 26.5792
lwrist -15.7068
lhand -9.26744 28.6482
lfingers 7.12502
lthumb 16.689 57.9508
rfemur -27.5212 -4.00095 17.7766
rtibia 65.4571
rfoot -8.46209 -6.58817
rtoes 5.51015
lfemur -7.65122 -2.53512 -29.4084
ltibia 29.0866
lfoot -14.6749 5.06955
ltoes 1.84763
7
root 1.37115 17.3894 -25.7516 -1.83733 -1.81935 4.38437
lowerback 7.40932 -0.389171 -4.13008
upperback 1.54139 -0.80961 0.960917
thorax -2.48734 -0.374997 3.39336
lowerneck -11.4019 -1.94183 -9.40577
upperneck 19.9538 -1.65486 4.02896
head 8.18485 -1.09825 2.74281
rclavicle -1.43125e-014 -4.77083e-015
rhumerus -32.5951 -10.4153 -77.5446
rradius 32.2437
rwrist 5.78247
rhand -11.8669 13.1618
rfingers 7.12502
rthumb 14.1852 -16.3338
lclavicle -1.43125e-014 -4.77083e-015
lhumerus -30.4271 7.9189 83.634
lradius 26.9599
lwrist -15.7513
lhand -9.09962 27.7966
lfingers 7.12502
lthumb 16.8505 57.0855
rfemur -28.7008 -3.95609 17.8483
rtibia 63.8902
rfoot -9.34322 -6.87142
rtoes 4.46331
lfemur -7.37992 -2.40823 -29.5173
ltibia 29.224
lfoot -15.109 4.89715
ltoes 2.51667
8
root 1.36063 17.3718 -25.597 -1.6446 -1.44296 4.51964
lowerback 7.61972 -0.514094 -4.43771
upperback 1.52797 -1.00859 0.983753
thorax -2.59462 -0.469032 3.61317
lowerneck -11.8334 -1.99074 -9.38725
upperneck 20.1186 -1.69482 4.07896
head 8.32161 -1.11029 2.75363
rclavicle 9.19379e-015 -1.43125e-014
rhumerus -32.8015 -10.7418 -77.3695
rradius 31.7508
rwrist 6.2126
rhand -11.9663 14.919
rfingers 7.12502
rthumb 14.0894 -14.5834
lclavicle 9.19379e-015 -1.43125e-014
lhumerus -29.6827 7.23542 83.7949
lradius 27.358
lwrist -15.5653
lhand -9.13978 25.9826
lfingers 7.12502
lthumb 16.8119 55.2748
rfemur -29.7984 -4.06342 17.8371
rtibia 62.113
rfoot -9.81579 -7.35724
rtoes 3.06634
lfemur -6.94689 -2.46029 -29.6723
ltibia 29.1318
lfoot -15.4575 4.62922
ltoes 2.04182
9
root 1.35761 17.3616 -25.4212 -1.56137 -1.44768 4.80539
lowerback 7.72784 -0.539809 -4.79502
upperback 1.49531 -1.07836 0.949715
thorax -2.67577 -0.498429 3.78877
lowerneck -12.1033 -1.96812 -9.27904
upperneck 20.2476 -1.63819 3.97666
head 8.40859 -1.08573 2.70811
rclavicle 3.8763e-015 0
rhumerus -33.1667 -10.811 -77.2581
rradius 31.4852
rwrist 6.17796
rhand -11.3612 13.6035
rfingers 7.12502
rthumb 14.6726 -15.8574
lclavicle 3.8763e-015 0
lhumerus -29.283 6.42595 84.0182
lradius 28.076
lwrist -14.4097
lhand -9.251 27.0274
lfingers 7.12502
lthumb 16.7048 56.3286
rfemur -30.6179 -3.89633 17.6041
rtibia 60.0828
rfoot -10.0466 -7.99093
rtoes 1.0326
lfemur -6.23375 -2.29524 -30.0377
ltibia 28.8621
lfoot -15.837 4.63866
ltoes 2.08179
10
root 1.35644 17.3543 -25.2361 -1.54084 -1.54548 5.18595
lowerback 7.58371 -0.556997 -5.17554
upperback 1.56603 -1.12589 0.843762
thorax -2.51163 -0.525755 3.89391
lowerneck -11.9669 -1.94332 -9.23097
upperneck 20.038 -1.62133 3.95569
head 8.31097 -1.07339 2.6924
rclavicle 1.2424e-014 3.18055e-015
rhumerus -33.552 -10.4238 -77.3845
rradius 31.4497
rwrist 5.78045
rhand -10.3239 7.10246
rfingers 7.12502
rthumb 15.6718 -22.2828
lclavicle 1.2424e-014 3.18055e-015
lhumerus -28.7144 5.65824 84.1277
lradius 28.6164
lwrist -13.6254
lhand -9.31352 28.5634
lfingers 7.12502
lthumb 16.6446 57.8697
rfemur -31.228 -3.6105 17.2414
rtibia 57.8522
rfoot -10.083 -8.40154
rtoes 0.0731978
lfemur -5.3357 -2.03155 -30.5024
ltibia 28.4085
lfoot -16.1675 4.60734
ltoes 2.82092
11
root 1.35318 17.3496 -25.0609 -1.42848 -1.20257 5.34658
lowerback 7.47503 -0.723954 -5.38863
upperback 1.55401 -1.35823 0.862296
thorax -2.43336 -0.642158 4.05235
lowerneck -11.4524 -1.94178 -9.51189
upperneck 19.7213 -1.65165 4.14672
head 8.11744 -1.0885 2.79747
rclavicle 4.82053e-015 -6.36111e-015
rhumerus -33.8729 -10.0246 -77.401
rradius 31.2956
rwrist 5.43339
rhand -11.7303 14.6918
rfingers 7.12502
rthumb 14.3169 -14.7946
lclavicle 4.82053e-015 -6.36111e-015
lhumerus -28.1981 5.07527 84.2269
lradius 29.1042
lwrist -13.4826
lhand -9.23031 28.4313
lfingers 7.12502
lthumb 16.7247 57.7309
rfemur -31.7548 -3.59284 17.0846
rtibia 55.4116
rfoot -10.0077 -8.7529
rtoes 1.2128
lfemur -4.44413 -2.01982 -30.696
ltibia 27.79
lfoot -16.3861 4.42978
ltoes 2.25786
